<svg width="226" height="34" viewBox="0 0 226 34" fill="none" xmlns="http://www.w3.org/2000/svg">
<path fill-rule="evenodd" clip-rule="evenodd" d="M0 8.39744L5.64154 16.7949L11.2831 11.7564L16.9246 6.71795L22.5661 3.35897L28.2077 6.71795L33.8492 1.67949L39.4908 16.7949L45.1323 10.0769H50.7738H56.4154L62.0569 11.7564L67.6984 5.03846H73.34L78.9815 15.1154L84.623 3.35897L90.2646 11.7564L95.9061 1.67949L101.548 3.35897L107.189 10.0769L112.831 13.4359L118.472 0L124.114 6.71795L129.755 13.4359L135.397 10.0769L141.038 1.67949L146.68 10.0769L152.321 1.67949L157.963 8.39744H163.605L169.246 11.7564H174.888L180.529 3.35897L186.171 6.71795L191.812 8.39744L197.454 16.7949L203.095 8.39744L208.737 11.7564L214.378 10.0769L220.02 6.71795L225.661 5.03846V16.7949H220.02H214.378H208.737H203.095H197.454H191.812H186.171H180.529H174.888H169.246H163.605H157.963H152.321H146.68H141.038H135.397H129.755H124.114H118.472H112.831H107.189H101.548H95.9061H90.2646H84.623H78.9815H73.34H67.6984H62.0569H56.4154H50.7738H45.1323H39.4908H33.8492H28.2077H22.5661H16.9246H11.2831H5.64154H0V8.39744Z" fill="#5D9763"/>
<path fill-rule="evenodd" clip-rule="evenodd" d="M225.661 25.1924L220.02 16.795L214.378 21.8334L208.737 26.8719L203.095 30.2309L197.454 26.8719L191.812 31.9104L186.171 16.795L180.529 23.5129H174.888H169.246L163.605 21.8334L157.963 28.5514H152.321L146.68 18.4745L141.038 30.2309L135.397 21.8334L129.755 31.9104L124.114 30.2309L118.472 23.5129L112.831 20.1539L107.189 33.5898L101.548 26.8719L95.9061 20.1539L90.2645 23.5129L84.623 31.9104L78.9815 23.5129L73.3399 31.9104L67.6984 25.1924H62.0569L56.4153 21.8334H50.7738L45.1322 30.2309L39.4907 26.8719L33.8492 25.1924L28.2076 16.795L22.5661 25.1924L16.9246 21.8334L11.283 23.5129L5.64149 26.8719L-4.57764e-05 28.5514V16.795L5.64149 16.795H11.283H16.9246H22.5661H28.2076H33.8492H39.4907H45.1322H50.7738H56.4153H62.0569H67.6984H73.3399H78.9815H84.623H90.2645L95.9061 16.795H101.548H107.189H112.831H118.472H124.114H129.755H135.397H141.038H146.68H152.321H157.963H163.605H169.246H174.888H180.529L186.171 16.795H191.812H197.454H203.095H208.737H214.378H220.02H225.661V25.1924Z" fill="#5D9763"/>
</svg>
